<?xml version="1.0" encoding="utf-8"?>
<!-- Generator: Adobe Illustrator 19.0.0, SVG Export Plug-In . SVG Version: 6.00 Build 0)  -->
<svg version="1.1" id="Layer_1" xmlns="http://www.w3.org/2000/svg" xmlns:xlink="http://www.w3.org/1999/xlink" x="0px" y="0px"
	 viewBox="-400 255.9 159 51.1" style="enable-background:new -400 255.9 159 51.1;" xml:space="preserve">
<style type="text/css">
	.st0{fill:#FFFFFF;}
	.st1{fill:#D4DF38;}
	.st2{fill:none;}
</style>
<path class="st0" d="M-371.9,278.8c-1.7,0.9-2.9,1.2-4.7,1.2c-4.6,0-7-3-7-6.1c0-3.2,2.6-6.2,7.2-6.2c1.7,0,3.2,0.3,4.3,1v2.7
	c-1.3-0.7-2.6-1.2-4.1-1.2c-2.5,0-4.3,1.5-4.3,3.6s1.8,3.7,4.3,3.7c1.6,0,2.6-0.5,4.3-1.3V278.8"/>
<polygon class="st0" points="-360.4,279.8 -369.3,279.8 -369.3,267.8 -360.6,267.8 -360.6,270 -366.3,270 -366.3,272.5 
	-360.8,272.5 -360.8,274.7 -366.3,274.7 -366.3,277.6 -360.4,277.6 "/>
<polygon class="st0" points="-345.5,279.8 -348,279.8 -354.6,272.1 -354.6,279.8 -357.6,279.8 -357.6,267.8 -354.9,267.8 
	-348.5,275.2 -348.5,267.8 -345.5,267.8 "/>
<polygon class="st0" points="-331.9,270 -336.2,270 -336.2,279.8 -339.2,279.8 -339.2,270 -343.5,270 -343.5,267.8 -331.9,267.8 "/>
<polygon class="st0" points="-321.2,279.8 -329.8,279.8 -329.8,267.8 -321.2,267.8 -321.2,270 -326.9,270 -326.9,272.5 
	-321.4,272.5 -321.4,274.7 -326.9,274.7 -326.9,277.6 -321.2,277.6 "/>
<polygon class="st0" points="-306.1,279.8 -308.6,279.8 -315.2,272.1 -315.2,279.8 -318.2,279.8 -318.2,267.8 -315.4,267.8 
	-309,275.2 -309,267.8 -306.1,267.8 "/>
<polygon class="st0" points="-290.7,279.8 -293.2,279.8 -299.8,272.1 -299.8,279.8 -302.8,279.8 -302.8,267.8 -300.1,267.8 
	-293.7,275.2 -293.7,267.8 -290.7,267.8 "/>
<rect x="-287.5" y="267.8" class="st0" width="3" height="11.9"/>
<path class="st0" d="M-275.7,270.7l-1.8,4.6h3.7L-275.7,270.7z M-268.7,279.8h-3.2l-1-2.4h-5.3l-0.9,2.4h-3.2l4.8-11.9h3.4
	L-268.7,279.8z"/>
<polygon class="st0" points="-257.5,279.8 -266.6,279.8 -266.6,267.8 -263.6,267.8 -263.6,277.6 -257.5,277.6 "/>
<path class="st1" d="M-323.8,286.5c-1.5-0.9-2.7-1.2-4.1-1.2c-2.7,0-4.8,1.9-4.8,4.6s2,4.5,4.8,4.5c1.3,0,2.8-0.5,4.2-1.4v1.9
	c-1.2,0.6-2.4,1.1-4.3,1.1c-4.5,0-6.4-3.5-6.4-6c0-3.6,2.7-6.3,6.5-6.3c1.2,0,2.5,0.3,4.1,1L-323.8,286.5"/>
<path class="st1" d="M-315.3,294.4c2.7,0,4.7-1.9,4.7-4.6c0-2.6-2-4.6-4.7-4.6c-2.7,0-4.6,1.9-4.6,4.6
	C-320,292.4-318,294.4-315.3,294.4 M-315.3,283.7c3.9,0,6.4,2.8,6.4,6.1c0,3.2-2.4,6.1-6.5,6.1c-3.9,0-6.4-2.9-6.4-6.1
	C-321.7,286.5-319.2,283.7-315.3,283.7"/>
<polygon class="st1" points="-304.7,294.3 -299.3,294.3 -299.3,295.8 -306.4,295.8 -306.4,283.9 -304.7,283.9 "/>
<polygon class="st1" points="-294.9,294.3 -289.5,294.3 -289.5,295.8 -296.6,295.8 -296.6,283.9 -294.9,283.9 "/>
<polygon class="st1" points="-280.2,285.4 -285.5,285.4 -285.5,289 -280.6,289 -280.6,290.6 -285.5,290.6 -285.5,294.3 
	-280.2,294.3 -280.2,295.8 -287.2,295.8 -287.2,283.9 -280.2,283.9 "/>
<path class="st1" d="M-267.3,295c-1.6,0.7-2.9,1-4.6,1c-3.7,0-6.4-2.6-6.4-6.1s2.8-6.2,6.4-6.2c1.4,0,2.4,0.2,4.3,1v1.7
	c-1.4-0.8-2.9-1.2-4.3-1.2c-2.6,0-4.6,2-4.6,4.6c0,2.7,2,4.5,4.8,4.5c0.9,0,1.8-0.2,2.6-0.5v-2.5h-2.3v-1.4h4v5.1"/>
<polygon class="st1" points="-257.5,285.4 -262.6,285.4 -262.6,289 -257.7,289 -257.7,290.6 -262.6,290.6 -262.6,294.3 
	-257.5,294.3 -257.5,295.8 -264.3,295.8 -264.3,283.9 -257.5,283.9 "/>
<rect x="-400" y="255.9" class="st2" width="159" height="51.1"/>
</svg>
